<?xml version="1.0" encoding="UTF-8"?>
<svg id="Layer_1" data-name="Layer 1" xmlns="http://www.w3.org/2000/svg" viewBox="0 0 1920 360">
  <defs>
    <style>
      .cls-1, .cls-2 {
        fill: #ec1c24;
        stroke-width: 0px;
      }

      .cls-2 {
        fill-rule: evenodd;
      }
    </style>
  </defs>
  <g>
    <path class="cls-1" d="M563.57,246.5h-39.74c-12.61,0-21.47-2.18-26.57-6.54-5.1-4.36-7.65-12.06-7.65-23.1v-82.63h73.95v19.55h-52.04v26.33h36.43l-1.58,19.55h-34.85v15.61c0,4.42,1,7.47,3,9.15,2,1.68,5.62,2.52,10.88,2.52h38.16v19.55Z"/>
    <path class="cls-1" d="M673.64,246.5h-27.12l-23.49-39.11-23.18,39.11h-27.12l37.69-57.55-35.32-54.72h26.96l20.97,36.27,21.29-36.27h26.81l-35.32,54.72,37.84,57.55Z"/>
    <path class="cls-1" d="M756.81,143.92c6.47,6.47,9.7,15.95,9.7,28.46s-3.23,22-9.7,28.46c-6.46,6.46-15.59,9.7-27.36,9.7h-21.6v35.95h-21.92v-112.27h43.52c11.77,0,20.89,3.23,27.36,9.7ZM744.59,172.39c0-12.4-5.42-18.61-16.24-18.61h-20.5v37.06h20.5c5.26,0,9.28-1.42,12.06-4.26,2.78-2.84,4.18-7.57,4.18-14.19Z"/>
    <path class="cls-1" d="M854.18,246.5h-33.43c-12.61,0-21.74-2.44-27.36-7.33-5.62-4.89-8.44-12.85-8.44-23.89v-81.05h21.92v81.05c0,4.42,1,7.47,3,9.15,2,1.68,5.62,2.52,10.88,2.52h33.43v19.55Z"/>
    <path class="cls-1" d="M953.99,185.16v8.52c0,18.82-3.55,32.48-10.64,41s-18.48,12.77-34.14,12.77-26.99-4.26-33.98-12.77c-6.99-8.51-10.49-22.34-10.49-41.47v-8.2c0-17.45,3.55-30.43,10.64-38.95,7.1-8.52,18.34-12.77,33.74-12.77s26.73,4.31,33.98,12.93c7.25,8.62,10.88,21.6,10.88,38.95ZM932.08,193.2v-5.83c0-10.09-1.26-18.13-3.78-24.13-2.94-6.94-9.25-10.41-18.92-10.41s-16.14,3.47-19.08,10.41c-2.42,5.68-3.63,13.72-3.63,24.13v5.83c0,13.56,1.89,22.71,5.68,27.44,1.47,2,3.65,3.71,6.54,5.12,2.89,1.42,6.36,2.13,10.41,2.13s7.49-.68,10.33-2.05c2.84-1.37,5.05-3.05,6.62-5.05,1.58-2,2.78-4.62,3.63-7.88,1.47-5.15,2.21-11.72,2.21-19.71Z"/>
    <path class="cls-1" d="M1058.22,246.5h-25.39l-21.92-41.63h-15.77v41.63h-21.92v-88.15c0-8.41,1.94-14.53,5.83-18.37,3.89-3.84,10.41-5.76,19.55-5.76h18.61c11.14,0,20,3.39,26.57,10.17,6.57,6.78,9.86,15.37,9.86,25.78,0,7.57-1.97,14.11-5.91,19.63-3.94,5.52-8.81,9.33-14.59,11.43l25.07,45.26ZM1027.24,181.77c3-3.21,4.49-7.2,4.49-11.98s-1.45-8.65-4.34-11.59c-2.89-2.94-6.76-4.42-11.59-4.42h-10.88c-6.52,0-9.78,3.31-9.78,9.93v22.86h20.66c4.62,0,8.44-1.6,11.43-4.81Z"/>
    <path class="cls-1" d="M1150.31,246.5h-39.74c-12.62,0-21.47-2.18-26.57-6.54-5.1-4.36-7.65-12.06-7.65-23.1v-82.63h73.95v19.55h-52.04v26.33h36.42l-1.58,19.55h-34.85v15.61c0,4.42,1,7.47,3,9.15,2,1.68,5.62,2.52,10.88,2.52h38.16v19.55Z"/>
    <path class="cls-1" d="M1258.95,187.05l38.63,59.45h-25.54l-26.49-42.42-15.3,20.5v21.92h-21.92v-112.27h21.92v62.76l42.42-62.76h22.08l-35.79,52.82Z"/>
    <path class="cls-1" d="M1395.66,134.23v73.8c0,12.2-4.13,21.81-12.38,28.86-8.25,7.04-18.42,10.57-30.51,10.57s-22.26-3.52-30.51-10.57c-8.25-7.04-12.38-16.66-12.38-28.86v-73.8h21.92v73.01c0,6.94,1.92,12.12,5.76,15.53,3.84,3.42,8.91,5.12,15.22,5.12s11.4-1.71,15.29-5.12c3.89-3.42,5.83-8.59,5.83-15.53v-73.01h21.76Z"/>
    <path class="cls-1" d="M1487.75,246.5h-33.43c-12.61,0-21.74-2.44-27.36-7.33-5.62-4.89-8.44-12.85-8.44-23.89v-81.05h21.92v81.05c0,4.42,1,7.47,3,9.15,2,1.68,5.62,2.52,10.88,2.52h33.43v19.55Z"/>
    <path class="cls-1" d="M1527.17,246.5h-21.92v-112.27h21.92v112.27Z"/>
    <path class="cls-1" d="M1640.86,134.23v100.92c0,3.47-1.05,6.44-3.15,8.91-2.1,2.47-4.57,3.71-7.41,3.71-7.25,0-13.19-4.2-17.82-12.62l-38.79-60.71v72.06h-21.92v-112.27h21.13l46.04,73.48v-73.48h21.92Z"/>
    <path class="cls-1" d="M1737.52,246.5h-39.74c-12.62,0-21.47-2.18-26.57-6.54-5.1-4.36-7.65-12.06-7.65-23.1v-82.63h73.95v19.55h-52.04v26.33h36.42l-1.58,19.55h-34.85v15.61c0,4.42,1,7.47,3,9.15,2,1.68,5.62,2.52,10.88,2.52h38.16v19.55Z"/>
    <path class="cls-1" d="M1843.96,246.5h-25.39l-21.92-41.63h-15.77v41.63h-21.92v-88.15c0-8.41,1.94-14.53,5.83-18.37,3.89-3.84,10.41-5.76,19.55-5.76h18.61c11.14,0,20,3.39,26.57,10.17,6.57,6.78,9.86,15.37,9.86,25.78,0,7.57-1.97,14.11-5.91,19.63-3.94,5.52-8.81,9.33-14.59,11.43l25.07,45.26ZM1812.97,181.77c3-3.21,4.49-7.2,4.49-11.98s-1.45-8.65-4.34-11.59c-2.89-2.94-6.76-4.42-11.59-4.42h-10.88c-6.52,0-9.78,3.31-9.78,9.93v22.86h20.66c4.62,0,8.44-1.6,11.43-4.81Z"/>
  </g>
  <path class="cls-2" d="M354.71,113.65c16.02-15.64,54.6-50.4,16.59-68.75-47.44-22.9-106.43-14.75-145.65,24.47-39.13,39.13-47.34,97.94-24.63,145.33,24.42-28.78,35.97-41.06,66.12-75.11,23.44-26.48,53.74,7.08,87.57-25.95h0ZM304.29,50.33c-25.68-.09-51.4,9.66-70.99,29.25-17.91,17.91-27.59,40.93-29.06,64.38,27-76.17,85.77-86.75,100.05-93.63h0ZM176.25,292.5h14.58v14.58h-14.58v-14.58h0ZM104.14,233.39h15.81v15.81h-15.81v-15.81h0ZM268.7,292.5h-63.3v14.58h77.87l-14.58-14.58,46.99,46.99,90.04-90.04c32.41-32.41,43.61-78.31,33.6-120.05-10.19-42.51-48.34-11.36-64.08,4.77-33.03,33.84.53,64.13-25.95,87.57-36.14,31.99-47.75,43.04-80.59,70.75h0ZM239.69,263.5h-15.98v14.58h30.55l72.58-72.58c7.53-7.53,6.79-13.63,3.26-17.15-3.76-3.75-10.81-4.45-18.84,3.58l-71.57,71.57h0ZM209.14,263.5h-52.48v14.58h52.48v-14.58h0ZM135.76,233.39v15.81h89.63l71.57-71.57c8.03-8.03,7.33-15.09,3.58-18.84-3.52-3.53-9.62-4.27-17.15,3.26l-71.35,71.35h-76.29Z"/>
</svg>