<?xml version="1.0" encoding="UTF-8"?>
<svg id="Layer_1" data-name="Layer 1" xmlns="http://www.w3.org/2000/svg" viewBox="0 0 1920 854">
  <defs>
    <style>
      .cls-1, .cls-2 {
        fill: #ec1c24;
        stroke-width: 0px;
      }

      .cls-2 {
        fill-rule: evenodd;
      }

      .cls-3 {
        fill: none;
        stroke: #ec1c24;
        stroke-miterlimit: 10;
      }
    </style>
  </defs>
  <g>
    <path class="cls-2" d="M434.45,302.22c13.65,0,27,1.26,39.96,3.67v-24.96c-13.01,0-26.02-7.82-39.02-7.82s-27.26,7.82-40.89,7.82v24.96c12.95-2.41,26.31-3.67,39.96-3.67h0ZM484.57,280.93v27.12c40.68,9.6,76.94,30.63,105.21,59.52h-21.94c-12.29,0-20.39-6.59-28.51-12.93-7.99-7.84-20-12.91-33.56-12.91s-31.68,4.66-46.14,11.95c-14.78,6.48-18.48,15.89-18.73,23.24.25,7.35,3.95,16.77,18.73,23.23,14.46,7.3,33.14,11.95,46.14,11.95s25.57-5.07,33.56-12.91c8.11-6.33,16.22-12.93,28.51-12.93h38.26c22.2,28.53,37.45,62.75,43.18,100.09.83,5.38-.59,10.33-4.14,14.46-3.54,4.14-8.23,6.28-13.67,6.28H237.41c-5.44,0-10.12-2.15-13.67-6.28-3.54-4.13-4.95-9.08-4.13-14.46,2.21-14.46,5.87-28.46,10.79-41.84h46.01c4.13,0,20.56-.26,24.2.43,20.89,3.88,30.57,24.91,52.37,23.79,10.4-.77,61.05-2.77,66.39-5.67,2.47-1.49,2.63-5.26-1.44-6.45-5.27-1.05-60.31,1.78-70.84,1.97-6.92.12-7.08-10.76,0-10.76h74.68c2.3,0,4.17-1.89,4.17-4.19h0c0-2.3-1.87-4.19-4.17-4.19h-76.19c-2.73,0-4.11-2.02-4.11-4.04s1.37-4.06,4.11-4.06h76.19c2.3,0,4.17-1.87,4.17-4.17h0c0-2.3-1.87-4.19-4.17-4.19h-74.68c-7.08,0-6.92-10.89,0-10.76,10.53.19,65.57,3.02,70.84,1.97,4.07-1.2,3.91-4.97,1.44-6.45-5.34-2.9-55.99-4.91-66.39-5.67-21.8-1.13-31.48,19.91-52.37,23.79-3.64.68-20.07.41-24.2.41h-38.32c27.97-58.72,81.51-102.94,146.23-118.21v-27.12h-11.78v-25.21h123.82v25.21h-11.79ZM227.53,539.15h411.74c5.56,0,10.09-4.54,10.09-10.1h0c0-5.56-4.54-10.09-10.09-10.09H227.53c-5.56,0-10.1,4.54-10.1,10.09h0c0,5.56,4.54,10.1,10.1,10.1Z"/>
    <path class="cls-2" d="M295.95,552.16c16.52,0,29.91,13.39,29.91,29.9s-13.39,29.91-29.91,29.91-29.9-13.39-29.9-29.91,13.38-29.9,29.9-29.9h0ZM570.99,552.16c16.52,0,29.91,13.39,29.91,29.9s-13.39,29.91-29.91,29.91-29.9-13.39-29.9-29.91,13.39-29.9,29.9-29.9Z"/>
  </g>
  <g>
    <path class="cls-1" d="M833.15,243.84v47.95h57.03v20.03h-57.03v62.21h78.23v21.21h-101.8v-172.61h103.09v21.21h-79.53Z"/>
    <path class="cls-1" d="M1028.97,395.24l-42.89-69.28-39.59,69.28h-23.8l50.9-89.54-46.77-83.18,23.21.12,36.88,65.27,40.65-65.27h23.68l-53.61,83.53,56.32,89.07h-24.98Z"/>
    <path class="cls-1" d="M1096.72,328.79v66.45h-23.56v-172.61c17.83-.78,28.59-1.18,32.28-1.18,50.11,0,75.17,16.77,75.17,50.31,0,38.8-22.15,58.2-66.45,58.2-2.67,0-8.48-.39-17.44-1.18ZM1096.72,243.84v63.74c9.97.79,15.24,1.18,15.79,1.18,29.22,0,43.83-11.51,43.83-34.52,0-21.05-15.59-31.58-46.77-31.58-3.14,0-7.42.39-12.84,1.18Z"/>
    <path class="cls-1" d="M1207.7,395.24v-172.61h23.56v151.4h78v21.21h-101.56Z"/>
    <path class="cls-1" d="M1321.64,307.46c0-24.98,6.26-45.87,18.79-62.68,12.53-16.81,29.44-25.21,50.72-25.21,23.96,0,42.32,7.74,55.08,23.21,12.76,15.47,19.15,37.04,19.15,64.68s-6.4,50.57-19.21,66.63c-12.8,16.06-31.14,24.09-55.02,24.09-21.76,0-38.78-8.48-51.08-25.45-12.29-16.97-18.44-38.72-18.44-65.27ZM1346.38,307.46c0,19.79,3.91,36.33,11.72,49.6,7.81,13.27,18.83,19.91,33.05,19.91,16.1,0,28.37-6.09,36.82-18.26,8.44-12.17,12.67-29.26,12.67-51.25,0-44.46-16.5-66.69-49.48-66.69-14.61,0-25.73,5.97-33.34,17.91-7.62,11.94-11.43,28.2-11.43,48.78Z"/>
    <path class="cls-1" d="M1588.27,395.24l-46.07-74.11c-5.26,0-13.59-.39-24.98-1.18v75.29h-23.56v-172.61c.86,0,6.97-.29,18.32-.88,11.35-.59,19.62-.88,24.8-.88,41.47,0,62.21,16.5,62.21,49.48,0,10.84-3.34,20.6-10.02,29.28-6.68,8.68-14.61,14.08-23.8,16.2l50.07,79.41h-26.98ZM1517.22,243.84v56.08c5.66.79,11.15,1.18,16.5,1.18,14.14,0,24.43-2.28,30.87-6.83,6.44-4.55,9.66-12.68,9.66-24.39,0-9.66-3.46-16.61-10.37-20.85-6.91-4.24-17.83-6.36-32.75-6.36-2.36,0-6.99.39-13.9,1.18Z"/>
    <path class="cls-1" d="M1656.48,243.84v47.95h57.03v20.03h-57.03v62.21h78.23v21.21h-101.8v-172.61h103.09v21.21h-79.53Z"/>
    <path class="cls-1" d="M904.79,623.69l-48.66-79.41-22.98,32.64v46.77h-23.56v-172.61h23.56v93.9l64.09-93.9h26.27l-51.61,74.82,58.91,97.79h-26.04Z"/>
    <path class="cls-1" d="M948.5,451.09h23.56v118.17c0,10.53,3.34,19.19,10.01,25.98,6.68,6.79,15.51,10.19,26.51,10.19,11.62,0,20.78-3.3,27.45-9.9,6.68-6.6,10.01-15.55,10.01-26.86v-117.58h23.56v120.06c0,17.44-5.44,31.05-16.32,40.82-10.88,9.78-25.71,14.67-44.48,14.67s-34.21-4.79-44.65-14.37c-10.45-9.58-15.67-23.33-15.67-41.24v-119.94Z"/>
    <path class="cls-1" d="M1104.96,623.69v-172.61h23.56v151.4h78v21.21h-101.56Z"/>
    <path class="cls-1" d="M1231.27,623.69v-172.61h23.56v172.61h-23.56Z"/>
    <path class="cls-1" d="M1405.88,626.05l-89.19-126.19v123.83h-22.39v-172.61h9.43l86.83,119.35v-119.35h22.39v174.96h-7.07Z"/>
    <path class="cls-1" d="M1471.86,472.29v47.95h57.03v20.03h-57.03v62.21h78.23v21.21h-101.8v-172.61h103.09v21.21h-79.53Z"/>
    <path class="cls-1" d="M1673.33,623.69l-46.07-74.11c-5.26,0-13.59-.39-24.98-1.18v75.29h-23.56v-172.61c.86,0,6.97-.29,18.32-.88,11.35-.59,19.62-.88,24.8-.88,41.47,0,62.21,16.5,62.21,49.49,0,10.84-3.34,20.6-10.02,29.28-6.68,8.68-14.61,14.08-23.8,16.2l50.07,79.41h-26.98ZM1602.29,472.29v56.08c5.66.79,11.15,1.18,16.5,1.18,14.14,0,24.43-2.28,30.87-6.83,6.44-4.55,9.66-12.68,9.66-24.39,0-9.66-3.46-16.61-10.37-20.85-6.91-4.24-17.83-6.36-32.75-6.36-2.36,0-6.99.39-13.9,1.18Z"/>
  </g>
  <rect class="cls-3" x="728.07" y="126.69" width="1088.93" height="600.11"/>
  <rect class="cls-3" x="130.14" y="126.69" width="600.11" height="600.11"/>
</svg>